<?xml version="1.0" encoding="UTF-8" standalone="no"?>
<svg xmlns:ffdec="https://www.free-decompiler.com/flash" xmlns:xlink="http://www.w3.org/1999/xlink" ffdec:objectType="frame" height="31.0px" width="84.0px" xmlns="http://www.w3.org/2000/svg">
  <g transform="matrix(1.0, 0.0, 0.0, 1.0, 7.55, 0.55)">
    <g class="button" transform="matrix(1.0, 0.0, 0.0, 1.0, 0.0, 0.0)">
      <g class="button-frame button-frame-up" transform="matrix(1.0, 0.0, 0.0, 1.0, 0.0, 0.0)">
        <use ffdec:characterId="237" height="19.15" transform="matrix(1.0, 0.0, 0.0, 1.0, 0.0, -2.0)" width="53.25" xlink:href="#shape0"/>
      </g>
      <g class="button-frame button-frame-over" transform="matrix(1.0, 0.0, 0.0, 1.0, 0.0, 0.0)">
        <use ffdec:characterId="238" height="19.15" transform="matrix(1.0, 0.0, 0.0, 1.0, 0.0, 0.0)" width="53.25" xlink:href="#shape1"/>
      </g>
      <g class="button-frame button-frame-down" transform="matrix(1.0, 0.0, 0.0, 1.0, 0.0, 0.0)">
        <use ffdec:characterId="237" height="19.15" transform="matrix(1.0, 0.0, 0.0, 1.0, 0.0, 0.0)" width="53.25" xlink:href="#shape0"/>
      </g>
      <g class="button-frame button-frame-hittest" transform="matrix(1.0, 0.0, 0.0, 1.0, 0.0, 0.0)">
        <use ffdec:characterId="239" height="31.0" transform="matrix(1.0, 0.0, 0.0, 1.0, 0.0, 0.0)" width="84.0" xlink:href="#shape2"/>
      </g>
    </g>
  </g>
  <defs>
    <style><![CDATA[
    .button-frame {
      pointer-events: none;
    }

    .button-frame-up,
    .button-frame-over,
    .button-frame-down {
      opacity: 0;
    }

    .button .button-frame-up {
      opacity: 1;
    }

    .button:hover .button-frame-up {
      opacity: 0;
    }
    .button:hover .button-frame-over {
      opacity: 1;
    }

    .button:active .button-frame-over {
      opacity: 0;
    }
    .button:active .button-frame-down {
      opacity: 1;
    }

    .button-frame-hittest {
      opacity: 0;
      pointer-events: all;
      cursor: pointer;
    }
]]></style>
    <g id="shape0">
      <path d="M52.8 10.2 L40.75 10.2 Q39.85 10.2 39.9 11.0 L39.9 23.35 Q39.85 24.2 40.7 24.15 L52.9 24.15 Q53.75 24.2 53.75 23.25 L53.75 11.0 Q53.75 10.2 52.8 10.2 M56.25 9.15 L56.25 24.9 Q56.35 26.7 54.5 26.6 L38.95 26.6 Q37.25 26.7 37.4 24.9 L37.4 9.25 Q37.25 7.55 39.3 7.65 L54.35 7.65 Q56.25 7.65 56.25 9.15 M49.3 14.15 L44.2 14.15 Q43.5 14.15 43.6 14.75 L43.6 19.4 Q43.6 20.15 44.1 20.1 L49.35 20.1 Q49.9 20.15 49.9 19.4 L49.9 14.75 49.3 14.15 M41.2 21.05 L41.2 13.3 Q41.1 11.75 42.85 11.75 L50.65 11.75 Q52.3 11.75 52.3 13.3 L52.3 21.05 Q52.35 22.75 50.65 22.6 L42.85 22.6 Q41.05 22.75 41.2 21.05 M21.4 10.1 L12.5 10.45 Q11.9 10.45 11.9 10.9 L11.9 11.9 19.7 11.9 Q22.45 11.85 21.7 14.25 20.9 17.0 19.6 18.95 L22.3 21.45 Q22.95 22.6 22.3 23.45 L20.5 23.35 19.6 22.65 17.9 21.05 Q15.15 23.35 13.6 23.85 12.3 24.3 11.7 23.55 11.3 22.65 12.3 21.9 L12.85 21.55 15.75 19.5 13.35 17.7 Q12.3 17.0 13.0 16.05 13.7 15.35 15.0 15.8 L17.45 17.4 18.85 14.75 Q18.95 14.25 18.6 14.25 L11.8 14.25 Q11.7 19.25 10.85 22.15 10.4 23.45 9.3 23.25 8.25 22.9 8.55 21.65 9.5 17.75 9.55 13.8 L9.55 9.85 Q9.5 8.15 11.3 8.15 L16.5 8.05 21.1 7.7 Q22.2 7.7 22.45 8.75 22.45 9.95 21.4 10.1 M5.25 7.9 L8.0 9.7 Q8.9 10.55 8.35 11.5 7.6 12.45 6.75 11.75 L3.8 9.8 Q2.85 9.15 3.4 8.25 4.05 7.45 5.25 7.9 M8.0 16.5 L8.0 21.7 Q8.0 24.55 13.85 24.55 L22.0 24.55 Q23.05 24.65 23.15 25.6 23.15 26.7 22.1 26.8 L12.75 26.8 Q9.5 26.7 7.35 24.9 L6.8 24.55 Q6.55 24.55 5.5 25.75 L5.2 26.2 Q4.4 26.9 3.65 26.55 2.45 25.65 3.55 24.45 L5.6 22.25 5.6 17.5 5.35 17.25 4.15 17.25 Q3.1 17.25 3.1 15.95 3.2 14.85 4.3 14.75 L6.45 14.75 Q8.1 14.65 8.0 16.5" fill="#ffffff" fill-rule="evenodd" stroke="none"/>
    </g>
    <g id="shape1">
      <path d="M52.3 11.3 L52.3 19.05 Q52.35 20.75 50.65 20.6 L42.85 20.6 Q41.05 20.75 41.2 19.05 L41.2 11.3 Q41.1 9.75 42.85 9.75 L50.65 9.75 Q52.3 9.75 52.3 11.3 M52.8 8.2 L40.75 8.2 Q39.85 8.2 39.9 9.0 L39.9 21.35 Q39.85 22.2 40.7 22.15 L52.9 22.15 Q53.75 22.2 53.75 21.25 L53.75 9.0 Q53.75 8.2 52.8 8.2 M56.25 7.15 L56.25 22.9 Q56.35 24.7 54.5 24.6 L38.95 24.6 Q37.25 24.7 37.4 22.9 L37.4 7.25 Q37.25 5.55 39.3 5.65 L54.35 5.65 Q56.25 5.65 56.25 7.15 M44.2 12.15 Q43.5 12.15 43.6 12.75 L43.6 17.4 Q43.6 18.15 44.1 18.1 L49.35 18.1 Q49.9 18.15 49.9 17.4 L49.9 12.75 49.3 12.15 44.2 12.15 M21.4 8.1 L12.5 8.45 Q11.9 8.45 11.9 8.9 L11.9 9.9 19.7 9.9 Q22.45 9.85 21.7 12.25 20.9 15.0 19.6 16.95 L22.3 19.45 Q22.95 20.6 22.3 21.45 L20.5 21.35 19.6 20.65 17.9 19.05 Q15.15 21.35 13.6 21.85 12.3 22.3 11.7 21.55 11.3 20.65 12.3 19.9 L12.85 19.55 15.75 17.5 13.35 15.7 Q12.3 15.0 13.0 14.05 13.7 13.35 15.0 13.8 L17.45 15.4 18.85 12.75 Q18.95 12.25 18.6 12.25 L11.8 12.25 Q11.7 17.25 10.85 20.15 10.4 21.45 9.3 21.25 8.25 20.9 8.55 19.65 9.5 15.75 9.55 11.8 L9.55 7.85 Q9.5 6.15 11.3 6.15 L16.5 6.05 21.1 5.7 Q22.2 5.7 22.45 6.75 22.45 7.95 21.4 8.1 M23.15 23.6 Q23.15 24.7 22.1 24.8 L12.75 24.8 Q9.5 24.7 7.35 22.9 L6.8 22.55 Q6.55 22.55 5.5 23.75 L5.2 24.2 Q4.4 24.9 3.65 24.55 2.45 23.65 3.55 22.45 L5.6 20.25 5.6 15.5 5.35 15.25 4.15 15.25 Q3.1 15.25 3.1 13.95 3.2 12.85 4.3 12.75 L6.45 12.75 Q8.1 12.65 8.0 14.5 L8.0 19.7 Q8.0 22.55 13.85 22.55 L22.0 22.55 Q23.05 22.65 23.15 23.6 M6.75 9.75 L3.8 7.8 Q2.85 7.15 3.4 6.25 4.05 5.45 5.25 5.9 L8.0 7.7 Q8.9 8.55 8.35 9.5 7.6 10.45 6.75 9.75" fill="#ff9900" fill-rule="evenodd" stroke="none"/>
    </g>
    <g id="shape2">
      <path d="M75.95 29.95 L-7.05 29.95 -7.05 -0.05 75.95 -0.05 75.95 29.95" fill="#ff9900" fill-rule="evenodd" stroke="none"/>
      <path d="M75.95 29.95 L-7.05 29.95 -7.05 -0.05 75.95 -0.05 75.95 29.95 Z" fill="none" stroke="#ffffff" stroke-linecap="round" stroke-linejoin="round" stroke-width="1.0"/>
    </g>
  </defs>
</svg>
