<?xml version="1.0" encoding="UTF-8" standalone="no"?>
<svg xmlns:ffdec="https://www.free-decompiler.com/flash" xmlns:xlink="http://www.w3.org/1999/xlink" ffdec:objectType="frame" height="31.0px" width="65.0px" xmlns="http://www.w3.org/2000/svg">
  <g transform="matrix(1.0, 0.0, 0.0, 1.0, 9.0, 4.0)">
    <use ffdec:characterId="96" height="22.3" transform="matrix(1.0, 0.0, 0.0, 1.0, 0.0, 0.0)" width="45.95" xlink:href="#shape0"/>
  </g>
  <defs>
    <g id="shape0">
      <path d="M43.15 7.9 Q44.3 8.45 43.9 9.7 42.5 13.6 40.9 15.95 42.3 18.7 42.85 18.6 43.35 19.05 43.45 15.75 43.55 14.65 44.55 14.65 45.7 14.75 45.8 15.85 45.6 21.75 43.8 22.25 41.65 22.7 39.05 18.3 36.8 20.35 34.6 21.6 33.2 22.25 32.35 21.2 31.9 20.2 33.2 19.45 35.65 17.95 37.8 15.7 36.05 11.35 35.65 5.95 L28.8 5.95 Q28.55 6.0 28.55 6.2 L28.55 8.25 32.75 8.25 Q35.1 8.0 34.9 10.45 L34.6 15.5 Q34.35 17.35 33.85 18.0 32.95 19.35 29.55 18.75 28.45 18.7 28.35 17.45 28.45 16.35 29.55 16.25 L30.2 16.35 Q31.7 16.45 31.8 15.75 L32.2 11.65 Q32.2 10.8 31.25 10.8 L28.45 10.8 Q28.25 17.2 26.75 20.85 26.0 22.15 24.8 21.85 23.65 21.4 24.1 20.0 25.8 15.85 25.8 9.85 L25.8 5.55 Q25.55 3.0 28.05 3.2 L35.45 3.2 35.45 1.35 Q35.45 0.2 36.8 0.0 38.1 0.1 38.2 1.25 L38.2 3.2 41.75 3.2 40.25 2.2 Q39.5 1.5 39.95 0.75 40.55 0.0 41.55 0.4 L43.45 1.7 Q44.1 2.75 43.35 3.2 L44.75 3.2 Q45.85 3.3 45.95 4.6 45.8 5.95 44.65 5.95 L38.35 5.95 Q38.75 10.15 39.7 12.85 L41.55 8.75 Q42.05 7.6 43.15 7.9 M20.65 9.0 Q19.7 8.95 18.05 7.8 18.4 9.6 16.7 9.7 L5.85 9.7 Q4.05 9.75 4.25 8.1 3.05 8.95 1.55 9.2 -1.0 8.65 0.6 6.6 0.85 6.4 1.6 6.1 L2.65 5.65 Q5.75 4.25 9.4 1.25 L9.6 1.15 Q10.9 0.2 11.45 0.2 12.3 0.2 13.55 1.25 16.25 3.85 20.85 6.0 L21.05 6.1 Q22.15 6.7 22.15 7.25 21.95 9.1 20.65 9.0 M11.55 3.1 L9.4 4.5 5.45 7.25 6.6 7.05 16.35 7.05 17.3 7.25 Q15.7 6.5 12.5 3.85 L11.55 3.1 M1.7 19.9 L1.7 13.6 Q1.7 11.35 3.8 11.35 L17.75 11.35 Q19.6 11.45 19.7 13.25 L19.7 19.9 Q19.7 21.85 17.65 21.85 L3.6 21.85 Q1.7 21.75 1.7 19.9 M4.7 18.5 Q4.6 19.35 5.35 19.25 L16.15 19.25 Q16.8 19.35 16.8 18.6 L16.8 14.85 Q16.9 14.1 16.15 14.2 L5.35 14.2 Q4.6 14.2 4.7 14.75 L4.7 18.5" fill="#ffffff" fill-rule="evenodd" stroke="none"/>
    </g>
  </defs>
</svg>
