<?xml version="1.0" encoding="UTF-8" standalone="no"?>
<svg xmlns:ffdec="https://www.free-decompiler.com/flash" xmlns:xlink="http://www.w3.org/1999/xlink" ffdec:objectType="frame" height="31.0px" width="65.0px" xmlns="http://www.w3.org/2000/svg">
  <g transform="matrix(1.0, 0.0, 0.0, 1.0, 9.0, 4.0)">
    <use ffdec:characterId="97" height="22.3" transform="matrix(1.0, 0.0, 0.0, 1.0, 0.0, 0.0)" width="45.95" xlink:href="#shape0"/>
  </g>
  <defs>
    <g id="shape0">
      <path d="M43.15 8.95 Q44.3 9.5 43.9 10.75 42.5 14.65 40.9 17.0 42.3 19.75 42.85 19.65 43.35 20.1 43.45 16.8 43.55 15.7 44.55 15.7 45.7 15.8 45.8 16.9 45.6 22.8 43.8 23.3 41.65 23.75 39.05 19.35 36.8 21.4 34.6 22.65 33.2 23.3 32.35 22.25 31.9 21.25 33.2 20.5 35.65 19.0 37.8 16.75 36.05 12.4 35.65 7.0 L28.8 7.0 Q28.55 7.05 28.55 7.25 L28.55 9.3 32.75 9.3 Q35.1 9.05 34.9 11.5 L34.6 16.55 Q34.35 18.4 33.85 19.05 32.95 20.4 29.55 19.8 28.45 19.75 28.35 18.5 28.45 17.4 29.55 17.3 L30.2 17.4 Q31.7 17.5 31.8 16.8 L32.2 12.7 Q32.2 11.85 31.25 11.85 L28.45 11.85 Q28.25 18.25 26.75 21.9 26.0 23.2 24.8 22.9 23.65 22.45 24.1 21.05 25.8 16.9 25.8 10.9 L25.8 6.6 Q25.55 4.05 28.05 4.25 L35.45 4.25 35.45 2.4 Q35.45 1.25 36.8 1.05 38.1 1.15 38.2 2.3 L38.2 4.25 41.75 4.25 40.25 3.25 Q39.5 2.55 39.95 1.8 40.55 1.05 41.55 1.45 L43.45 2.75 Q44.1 3.8 43.35 4.25 L44.75 4.25 Q45.85 4.35 45.95 5.65 45.8 7.0 44.65 7.0 L38.35 7.0 Q38.75 11.2 39.7 13.9 L41.55 9.8 Q42.05 8.65 43.15 8.95 M22.15 8.3 Q21.95 10.15 20.65 10.05 19.7 10.0 18.05 8.85 18.4 10.65 16.7 10.75 L5.85 10.75 Q4.05 10.8 4.25 9.15 3.05 10.0 1.55 10.25 -1.0 9.7 0.6 7.65 0.85 7.45 1.6 7.15 L2.65 6.7 Q5.75 5.3 9.4 2.3 L9.6 2.2 Q10.9 1.25 11.45 1.25 12.3 1.25 13.55 2.3 16.25 4.9 20.85 7.05 L21.05 7.15 Q22.15 7.75 22.15 8.3 M11.55 4.15 L9.4 5.55 5.45 8.3 6.6 8.1 16.35 8.1 17.3 8.3 Q15.7 7.55 12.5 4.9 L11.55 4.15 M1.7 14.65 Q1.7 12.4 3.8 12.4 L17.75 12.4 Q19.6 12.5 19.7 14.3 L19.7 20.95 Q19.7 22.9 17.65 22.9 L3.6 22.9 Q1.7 22.8 1.7 20.95 L1.7 14.65 M4.7 19.55 Q4.6 20.4 5.35 20.3 L16.15 20.3 Q16.8 20.4 16.8 19.65 L16.8 15.9 Q16.9 15.15 16.15 15.25 L5.35 15.25 Q4.6 15.25 4.7 15.8 L4.7 19.55" fill="#ff9900" fill-rule="evenodd" stroke="none"/>
    </g>
  </defs>
</svg>
