<?xml version="1.0" encoding="UTF-8" standalone="no"?>
<svg xmlns:ffdec="https://www.free-decompiler.com/flash" xmlns:xlink="http://www.w3.org/1999/xlink" ffdec:objectType="frame" height="33.0px" width="80.0px" xmlns="http://www.w3.org/2000/svg">
  <g transform="matrix(1.0, 0.0, 0.0, 1.0, 15.5, 10.5)">
    <use ffdec:characterId="111" height="20.25" transform="matrix(1.0, 0.0, 0.0, 1.0, 0.0, 0.0)" width="42.05" xlink:href="#shape0"/>
  </g>
  <defs>
    <g id="shape0">
      <path d="M41.2 16.85 Q41.3 18.7 39.4 18.6 L30.7 18.6 Q28.4 18.75 28.55 16.85 L28.55 13.85 Q28.5 12.05 30.3 11.95 L39.4 11.95 Q41.2 11.95 41.2 13.6 L41.2 16.85 M42.05 20.65 Q42.05 21.85 40.85 22.05 L31.9 22.05 Q27.7 22.05 25.55 19.7 L23.9 21.75 Q23.0 22.55 22.1 21.95 21.35 21.25 22.1 20.2 L22.3 20.05 24.35 17.2 24.35 12.15 Q24.35 11.55 23.85 11.55 L23.15 11.55 Q22.1 11.55 22.05 10.35 22.1 9.15 23.15 9.05 L25.4 9.05 Q27.0 8.95 26.95 10.75 L26.95 16.95 Q26.5 19.9 32.95 19.7 L39.15 19.8 40.7 19.7 Q41.9 19.7 42.05 20.65 M40.95 10.95 L28.5 10.95 Q27.1 11.05 27.2 9.55 27.2 8.6 28.15 8.55 27.25 8.55 27.45 7.4 L27.9 6.8 30.2 3.3 Q30.8 2.25 32.1 3.05 32.7 3.55 32.15 4.4 L33.7 4.4 33.7 3.3 Q33.7 2.35 35.0 2.25 36.3 2.35 36.4 3.3 L36.4 4.4 40.25 4.4 Q41.2 4.5 41.3 5.6 41.2 6.8 40.25 6.8 L36.4 6.8 36.4 8.55 40.95 8.55 Q41.95 8.6 42.05 9.75 41.95 10.95 40.95 10.95 M30.9 6.8 Q30.1 8.2 29.35 8.55 L33.7 8.55 33.7 6.8 30.9 6.8 M24.2 2.85 Q25.9 3.7 27.0 4.95 27.6 5.95 26.95 6.75 L25.3 6.65 22.8 4.85 Q21.75 4.25 22.4 3.3 23.0 2.45 24.2 2.85 M38.7 14.9 L38.25 14.4 31.55 14.4 Q30.95 14.4 31.05 15.0 L31.05 15.6 Q30.95 16.2 31.55 16.1 L38.25 16.1 38.7 15.65 38.7 14.9 M18.85 5.85 L17.65 5.85 17.65 19.35 Q17.65 21.35 15.6 22.05 13.2 22.65 10.5 21.5 9.3 20.9 9.75 19.95 10.45 18.95 11.7 19.3 12.65 19.8 14.15 19.7 15.05 19.7 15.15 18.25 L15.15 5.85 9.05 5.85 Q7.95 5.85 7.85 4.65 7.95 3.45 9.05 3.4 L18.85 3.4 Q19.95 3.45 20.15 4.65 19.95 5.85 18.85 5.85 M8.0 5.95 Q8.95 6.05 9.05 7.15 8.95 8.35 8.0 8.35 L5.9 8.35 5.9 12.3 7.0 11.95 7.5 11.8 Q8.45 11.65 8.95 12.65 9.25 13.7 8.3 14.1 L6.3 14.9 5.9 15.0 5.9 20.15 Q5.9 22.3 2.85 22.2 1.75 22.05 0.9 21.6 0.05 21.0 0.4 20.15 0.9 19.35 1.9 19.6 3.55 20.05 3.45 18.95 L3.45 15.65 1.9 16.0 Q0.4 16.35 0.05 15.3 -0.25 14.2 1.25 13.7 L3.45 13.0 3.45 8.35 1.5 8.35 Q0.45 8.35 0.4 7.15 0.45 6.05 1.5 5.95 L3.45 5.95 3.45 3.05 Q3.45 2.1 4.65 2.0 5.8 2.1 5.9 3.05 L5.9 5.95 8.0 5.95" fill="#ff9900" fill-rule="evenodd" stroke="none"/>
    </g>
  </defs>
</svg>
