<?xml version="1.0" encoding="UTF-8" standalone="no"?>
<svg xmlns:ffdec="https://www.free-decompiler.com/flash" xmlns:xlink="http://www.w3.org/1999/xlink" ffdec:objectType="frame" height="33.0px" width="80.0px" xmlns="http://www.w3.org/2000/svg">
  <g transform="matrix(1.0, 0.0, 0.0, 1.0, 15.5, 10.5)">
    <use ffdec:characterId="110" height="20.25" transform="matrix(1.0, 0.0, 0.0, 1.0, 0.0, 0.0)" width="42.05" xlink:href="#shape0"/>
  </g>
  <defs>
    <g id="shape0">
      <path d="M41.2 14.85 Q41.3 16.7 39.4 16.6 L30.7 16.6 Q28.4 16.75 28.55 14.85 L28.55 11.85 Q28.5 10.05 30.3 9.95 L39.4 9.95 Q41.2 9.95 41.2 11.6 L41.2 14.85 M42.05 18.65 Q42.05 19.85 40.85 20.05 L31.9 20.05 Q27.7 20.05 25.55 17.7 L23.9 19.75 Q23.0 20.55 22.1 19.95 21.35 19.25 22.1 18.2 L22.3 18.05 24.35 15.2 24.35 10.15 Q24.35 9.55 23.85 9.55 L23.15 9.55 Q22.1 9.55 22.05 8.35 22.1 7.15 23.15 7.05 L25.4 7.05 Q27.0 6.95 26.95 8.75 L26.95 14.95 Q26.5 17.9 32.95 17.7 L39.15 17.8 40.7 17.7 Q41.9 17.7 42.05 18.65 M40.95 8.95 L28.5 8.95 Q27.1 9.05 27.2 7.55 27.2 6.6 28.15 6.55 27.25 6.55 27.45 5.4 L27.9 4.8 30.2 1.3 Q30.8 0.25 32.1 1.05 32.7 1.55 32.15 2.4 L33.7 2.4 33.7 1.3 Q33.7 0.35 35.0 0.25 36.3 0.35 36.4 1.3 L36.4 2.4 40.25 2.4 Q41.2 2.5 41.3 3.6 41.2 4.8 40.25 4.8 L36.4 4.8 36.4 6.55 40.95 6.55 Q41.95 6.6 42.05 7.75 41.95 8.95 40.95 8.95 M30.9 4.8 Q30.1 6.2 29.35 6.55 L33.7 6.55 33.7 4.8 30.9 4.8 M26.95 4.75 L25.3 4.65 22.8 2.85 Q21.75 2.25 22.4 1.3 23.0 0.45 24.2 0.85 25.9 1.7 27.0 2.95 27.6 3.95 26.95 4.75 M38.7 12.9 L38.25 12.4 31.55 12.4 Q30.95 12.4 31.05 13.0 L31.05 13.6 Q30.95 14.2 31.55 14.1 L38.25 14.1 38.7 13.65 38.7 12.9 M18.85 3.85 L17.65 3.85 17.65 17.35 Q17.65 19.35 15.6 20.05 13.2 20.65 10.5 19.5 9.3 18.9 9.75 17.95 10.45 16.95 11.7 17.3 12.65 17.8 14.15 17.7 15.05 17.7 15.15 16.25 L15.15 3.85 9.05 3.85 Q7.95 3.85 7.85 2.65 7.95 1.45 9.05 1.4 L18.85 1.4 Q19.95 1.45 20.15 2.65 19.95 3.85 18.85 3.85 M9.05 5.15 Q8.95 6.35 8.0 6.35 L5.9 6.35 5.9 10.3 7.0 9.95 7.5 9.8 Q8.45 9.65 8.95 10.65 9.25 11.7 8.3 12.1 L6.3 12.9 5.9 13.0 5.9 18.15 Q5.9 20.3 2.85 20.2 1.75 20.05 0.9 19.6 0.05 19.0 0.4 18.15 0.9 17.35 1.9 17.6 3.55 18.05 3.45 16.95 L3.45 13.65 1.9 14.0 Q0.4 14.35 0.05 13.3 -0.25 12.2 1.25 11.7 L3.45 11.0 3.45 6.35 1.5 6.35 Q0.45 6.35 0.4 5.15 0.45 4.05 1.5 3.95 L3.45 3.95 3.45 1.05 Q3.45 0.1 4.65 0.0 5.8 0.1 5.9 1.05 L5.9 3.95 8.0 3.95 Q8.95 4.05 9.05 5.15" fill="#ffffff" fill-rule="evenodd" stroke="none"/>
    </g>
  </defs>
</svg>
