<?xml version="1.0" encoding="UTF-8" standalone="no"?>
<svg xmlns:ffdec="https://www.free-decompiler.com/flash" xmlns:xlink="http://www.w3.org/1999/xlink" ffdec:objectType="frame" height="32.0px" width="65.0px" xmlns="http://www.w3.org/2000/svg">
  <g transform="matrix(1.0, 0.0, 0.0, 1.0, 8.5, 5.5)">
    <use ffdec:characterId="107" height="20.7" transform="matrix(1.0, 0.0, 0.0, 1.0, 0.0, 0.0)" width="42.5" xlink:href="#shape0"/>
  </g>
  <defs>
    <g id="shape0">
      <path d="M41.1 14.25 L38.9 14.25 38.9 16.15 41.35 16.15 Q42.4 16.25 42.5 17.45 42.3 18.55 41.3 18.55 L38.9 18.55 38.9 21.85 Q38.8 22.6 37.6 22.7 36.5 22.6 36.5 21.75 L36.5 18.55 33.45 18.55 Q32.5 18.55 32.45 17.35 32.5 16.25 33.45 16.15 L36.5 16.15 36.5 14.25 34.5 14.25 33.75 15.4 32.1 15.3 32.1 20.55 Q32.0 22.35 30.3 22.45 L28.05 22.2 Q27.2 21.85 27.3 20.9 27.45 20.1 28.3 20.1 L28.85 20.2 Q29.95 20.3 29.85 19.7 L29.85 17.3 28.75 17.3 28.75 18.9 Q28.65 19.75 27.7 19.75 26.75 19.7 26.75 18.85 L26.75 17.3 25.5 17.3 Q25.05 20.3 24.35 21.9 23.75 22.8 22.75 22.45 21.85 22.0 22.3 21.05 23.4 18.3 23.4 14.7 L23.4 8.7 Q21.5 8.5 22.8 6.55 L24.85 2.65 Q25.5 1.55 26.85 2.25 27.2 2.65 27.1 3.0 L30.7 3.0 Q32.2 3.2 31.5 5.0 L31.25 5.5 30.45 7.15 Q32.0 7.2 32.1 8.5 L32.1 13.95 32.2 13.75 Q32.85 12.65 33.4 10.75 33.65 9.95 34.6 10.05 35.45 10.3 35.55 11.1 L35.35 11.95 36.5 11.95 36.5 11.1 Q36.4 10.3 37.15 9.95 36.55 9.9 36.55 9.05 36.65 7.85 37.95 7.9 39.55 8.7 39.3 5.75 L38.95 5.4 36.9 5.4 Q36.3 8.0 34.65 9.55 33.55 10.4 32.7 9.9 31.85 9.2 32.7 8.15 L32.8 8.1 Q33.9 7.15 34.4 5.4 L33.2 5.4 Q32.25 5.4 32.25 4.2 32.35 3.2 33.4 3.1 L40.15 3.1 Q41.7 3.1 41.7 4.9 41.65 8.35 41.1 9.45 40.7 10.4 38.35 10.15 38.9 10.4 38.9 10.9 L38.9 11.95 41.1 11.95 Q42.05 12.05 42.15 13.15 42.05 14.25 41.1 14.25 M26.4 5.25 L25.8 6.2 25.3 7.15 27.9 7.15 28.5 5.95 28.65 5.5 28.5 5.25 26.4 5.25 M26.75 11.25 L26.75 9.35 26.0 9.35 Q25.55 9.45 25.65 9.7 L25.65 11.25 26.75 11.25 M29.85 9.7 L29.6 9.35 28.75 9.35 28.75 11.25 29.85 11.25 29.85 9.7 M29.85 15.2 L29.85 13.35 28.75 13.35 28.75 15.2 29.85 15.2 M25.65 13.35 L25.65 15.2 26.75 15.2 26.75 13.35 25.65 13.35 M13.35 2.25 Q14.05 2.25 15.0 3.95 L15.15 4.15 Q16.9 7.4 19.55 9.65 L20.0 9.95 20.65 10.85 Q21.2 12.45 19.65 12.8 18.75 12.8 17.65 11.7 L17.55 11.5 Q17.65 16.95 17.3 19.25 16.95 21.25 15.95 21.85 13.55 22.85 10.0 21.9 8.65 21.4 8.7 20.3 9.15 19.15 10.45 19.35 L12.15 19.7 13.55 19.75 Q14.55 19.85 14.65 18.65 L14.9 12.8 14.4 12.2 9.9 12.2 Q8.3 19.6 3.3 22.1 L0.75 22.2 Q0.2 21.25 0.9 20.55 L2.2 19.7 Q5.95 17.55 7.25 12.2 L4.6 12.2 Q3.8 12.3 3.55 11.8 L3.15 12.2 1.85 13.05 Q0.75 13.4 0.3 12.7 -0.3 11.8 0.4 10.9 L1.0 10.3 Q4.15 7.5 5.3 3.7 5.6 2.65 6.85 2.95 8.05 3.35 7.85 4.4 7.25 6.95 5.35 9.55 L15.4 9.55 Q13.6 7.3 12.35 4.55 11.4 2.4 13.35 2.25" fill="#ff9900" fill-rule="evenodd" stroke="none"/>
    </g>
  </defs>
</svg>
