<?xml version="1.0" encoding="UTF-8" standalone="no"?>
<svg xmlns:ffdec="https://www.free-decompiler.com/flash" xmlns:xlink="http://www.w3.org/1999/xlink" ffdec:objectType="frame" height="32.0px" width="65.0px" xmlns="http://www.w3.org/2000/svg">
  <g transform="matrix(1.0, 0.0, 0.0, 1.0, 8.5, 5.5)">
    <use ffdec:characterId="106" height="20.7" transform="matrix(1.0, 0.0, 0.0, 1.0, 0.0, 0.0)" width="42.5" xlink:href="#shape0"/>
  </g>
  <defs>
    <g id="shape0">
      <path d="M41.1 7.45 Q40.7 8.4 38.35 8.15 38.9 8.4 38.9 8.9 L38.9 9.95 41.1 9.95 Q42.05 10.05 42.15 11.15 42.05 12.25 41.1 12.25 L38.9 12.25 38.9 14.15 41.35 14.15 Q42.4 14.25 42.5 15.45 42.3 16.55 41.3 16.55 L38.9 16.55 38.9 19.85 Q38.8 20.6 37.6 20.7 36.5 20.6 36.5 19.75 L36.5 16.55 33.45 16.55 Q32.5 16.55 32.45 15.35 32.5 14.25 33.45 14.15 L36.5 14.15 36.5 12.25 34.5 12.25 33.75 13.4 32.1 13.3 32.1 18.55 Q32.0 20.35 30.3 20.45 L28.05 20.2 Q27.2 19.85 27.3 18.9 27.45 18.1 28.3 18.1 L28.85 18.2 Q29.95 18.3 29.85 17.7 L29.85 15.3 28.75 15.3 28.75 16.9 Q28.65 17.75 27.7 17.75 26.75 17.7 26.75 16.85 L26.75 15.3 25.5 15.3 Q25.05 18.3 24.35 19.9 23.75 20.8 22.75 20.45 21.85 20.0 22.3 19.05 23.4 16.3 23.4 12.7 L23.4 6.7 Q21.5 6.5 22.8 4.55 L24.85 0.65 Q25.5 -0.45 26.85 0.25 27.2 0.65 27.1 1.0 L30.7 1.0 Q32.2 1.2 31.5 3.0 L31.25 3.5 30.45 5.15 Q32.0 5.2 32.1 6.5 L32.1 11.95 32.2 11.75 Q32.85 10.65 33.4 8.75 33.65 7.95 34.6 8.05 35.45 8.3 35.55 9.1 L35.35 9.95 36.5 9.95 36.5 9.1 Q36.4 8.3 37.15 7.95 36.55 7.9 36.55 7.05 36.65 5.85 37.95 5.9 39.55 6.7 39.3 3.75 L38.95 3.4 36.9 3.4 Q36.3 6.0 34.65 7.55 33.55 8.4 32.7 7.9 31.85 7.2 32.7 6.15 L32.8 6.1 Q33.9 5.15 34.4 3.4 L33.2 3.4 Q32.25 3.4 32.25 2.2 32.35 1.2 33.4 1.1 L40.15 1.1 Q41.7 1.1 41.7 2.9 41.65 6.35 41.1 7.45 M26.4 3.25 L25.8 4.2 25.3 5.15 27.9 5.15 28.5 3.95 28.65 3.5 28.5 3.25 26.4 3.25 M28.75 7.35 L28.75 9.25 29.85 9.25 29.85 7.7 29.6 7.35 28.75 7.35 M25.65 7.7 L25.65 9.25 26.75 9.25 26.75 7.35 26.0 7.35 Q25.55 7.45 25.65 7.7 M25.65 11.35 L25.65 13.2 26.75 13.2 26.75 11.35 25.65 11.35 M28.75 11.35 L28.75 13.2 29.85 13.2 29.85 11.35 28.75 11.35 M13.35 0.25 Q14.05 0.25 15.0 1.95 L15.15 2.15 Q16.9 5.4 19.55 7.65 L20.0 7.95 20.65 8.85 Q21.2 10.45 19.65 10.8 18.75 10.8 17.65 9.7 L17.55 9.5 Q17.65 14.95 17.3 17.25 16.95 19.25 15.95 19.85 13.55 20.85 10.0 19.9 8.65 19.4 8.7 18.3 9.15 17.15 10.45 17.35 L12.15 17.7 13.55 17.75 Q14.55 17.85 14.65 16.65 L14.9 10.8 14.4 10.2 9.9 10.2 Q8.3 17.6 3.3 20.1 L0.75 20.2 Q0.2 19.25 0.9 18.55 L2.2 17.7 Q5.95 15.55 7.25 10.2 L4.6 10.2 Q3.8 10.3 3.55 9.8 L3.15 10.2 1.85 11.05 Q0.75 11.4 0.3 10.7 -0.3 9.8 0.4 8.9 L1.0 8.3 Q4.15 5.5 5.3 1.7 5.6 0.65 6.85 0.95 8.05 1.35 7.85 2.4 7.25 4.95 5.35 7.55 L15.4 7.55 Q13.6 5.3 12.35 2.55 11.4 0.4 13.35 0.25" fill="#ffffff" fill-rule="evenodd" stroke="none"/>
    </g>
  </defs>
</svg>
