<?xml version="1.0" encoding="UTF-8" standalone="no"?>
<svg xmlns:ffdec="https://www.free-decompiler.com/flash" xmlns:xlink="http://www.w3.org/1999/xlink" ffdec:objectType="frame" height="30.0px" width="60.95px" xmlns="http://www.w3.org/2000/svg">
  <g transform="matrix(1.0, 0.0, 0.0, 1.0, 7.2, 3.4)">
    <use ffdec:characterId="93" height="21.2" transform="matrix(1.0, 0.0, 0.0, 1.0, 0.0, -2.0)" width="43.6" xlink:href="#shape0"/>
  </g>
  <defs>
    <g id="shape0">
      <path d="M43.6 15.85 Q43.6 20.6 42.55 21.6 41.65 22.95 38.15 22.95 L37.05 22.95 Q31.75 23.4 32.2 19.0 L32.2 13.05 30.85 13.7 Q30.15 13.95 29.5 12.9 29.05 11.7 29.7 11.25 L30.25 11.1 32.2 10.1 32.2 3.55 Q32.2 2.45 33.55 2.35 34.9 2.35 35.0 3.45 L35.0 8.55 Q37.85 6.95 40.55 4.35 41.55 3.55 42.55 4.35 43.45 5.45 42.55 6.35 39.85 9.0 35.2 11.9 L35.0 12.0 35.0 19.0 Q34.8 20.35 36.5 20.25 L38.6 20.25 Q40.3 20.35 40.55 19.6 41.0 19.0 40.95 15.85 40.95 14.75 42.25 14.7 43.55 14.75 43.6 15.85 M28.35 2.0 Q29.5 2.3 29.45 3.45 L28.45 6.85 28.45 22.05 Q28.35 23.15 27.1 23.2 25.75 23.15 25.75 22.05 L25.75 12.1 25.4 12.6 25.3 12.8 Q24.4 13.8 23.3 13.15 22.35 12.35 23.15 11.25 25.85 8.1 26.8 3.1 27.1 1.9 28.35 2.0 M19.2 3.9 L19.2 7.4 Q19.2 8.85 18.0 8.75 L14.85 8.75 14.85 9.9 18.4 9.9 Q19.8 9.9 19.8 11.45 L19.8 16.05 Q19.7 17.4 18.65 17.4 L19.2 18.1 20.8 21.6 Q21.0 22.5 20.1 22.95 19.0 23.3 18.55 22.6 L18.3 22.15 18.1 21.8 12.35 22.25 8.3 22.5 Q7.25 22.4 7.05 21.25 7.05 20.25 8.15 20.05 L12.35 20.0 12.35 17.4 8.75 17.4 Q7.4 17.4 7.4 16.2 L7.4 11.35 Q7.4 10.0 8.75 9.9 L12.35 9.9 12.35 8.75 9.55 8.75 Q8.3 8.75 8.3 7.6 L8.3 3.7 Q8.3 2.8 9.5 2.65 L17.85 2.65 Q19.0 2.8 19.2 3.9 M16.5 4.9 L11.1 4.9 Q10.85 4.9 10.85 5.15 L10.85 6.35 11.1 6.6 16.5 6.6 16.75 6.35 16.75 5.15 16.5 4.9 M14.85 12.35 L14.85 15.05 17.1 15.05 17.4 14.75 17.4 12.6 17.1 12.35 14.85 12.35 M6.9 4.15 L6.9 8.65 Q6.9 10.2 5.15 10.1 L3.0 10.1 2.85 12.6 5.35 12.6 Q6.7 12.7 6.8 14.4 L6.7 17.45 6.6 19.6 Q6.25 23.15 4.0 23.05 L0.85 22.6 Q-0.15 22.25 0.05 21.05 0.3 20.15 1.4 20.25 4.25 20.95 4.2 19.6 L4.35 15.3 1.6 15.3 Q-0.05 15.4 0.25 13.95 L0.6 8.3 Q0.7 7.4 1.95 7.4 L4.45 7.4 4.45 5.25 1.3 5.25 Q0.15 5.25 0.05 3.9 0.25 2.65 1.4 2.55 L5.35 2.55 Q6.8 2.65 6.9 4.15 M10.1 15.05 L12.35 15.05 12.35 12.35 10.1 12.35 9.85 12.6 9.85 14.75 10.1 15.05 M17.2 19.6 L17.05 19.45 Q16.4 18.1 16.95 17.4 L14.85 17.4 14.85 19.8 16.95 19.7 17.2 19.6" fill="#ff9900" fill-rule="evenodd" stroke="none"/>
    </g>
  </defs>
</svg>
