<?xml version="1.0" encoding="UTF-8" standalone="no"?>
<svg xmlns:ffdec="https://www.free-decompiler.com/flash" xmlns:xlink="http://www.w3.org/1999/xlink" ffdec:objectType="frame" height="30.0px" width="60.95px" xmlns="http://www.w3.org/2000/svg">
  <g transform="matrix(1.0, 0.0, 0.0, 1.0, 7.2, 3.4)">
    <use ffdec:characterId="92" height="21.2" transform="matrix(1.0, 0.0, 0.0, 1.0, 0.0, 0.0)" width="43.6" xlink:href="#shape0"/>
  </g>
  <defs>
    <g id="shape0">
      <path d="M40.95 13.85 Q40.95 12.75 42.25 12.7 43.55 12.75 43.6 13.85 43.6 18.6 42.55 19.6 41.65 20.95 38.15 20.95 L37.05 20.95 Q31.75 21.4 32.2 17.0 L32.2 11.05 30.85 11.7 Q30.15 11.95 29.5 10.9 29.05 9.7 29.7 9.25 L30.25 9.1 32.2 8.1 32.2 1.55 Q32.2 0.45 33.55 0.35 34.9 0.35 35.0 1.45 L35.0 6.55 Q37.85 4.95 40.55 2.35 41.55 1.55 42.55 2.35 43.45 3.45 42.55 4.35 39.85 7.0 35.2 9.9 L35.0 10.0 35.0 17.0 Q34.8 18.35 36.5 18.25 L38.6 18.25 Q40.3 18.35 40.55 17.6 41.0 17.0 40.95 13.85 M28.45 4.85 L28.45 20.05 Q28.35 21.15 27.1 21.2 25.75 21.15 25.75 20.05 L25.75 10.1 25.4 10.6 25.3 10.8 Q24.4 11.8 23.3 11.15 22.35 10.35 23.15 9.25 25.85 6.1 26.8 1.1 27.1 -0.1 28.35 0.0 29.5 0.3 29.45 1.45 L28.45 4.85 M16.75 3.15 L16.5 2.9 11.1 2.9 Q10.85 2.9 10.85 3.15 L10.85 4.35 11.1 4.6 16.5 4.6 16.75 4.35 16.75 3.15 M19.2 5.4 Q19.2 6.85 18.0 6.75 L14.85 6.75 14.85 7.9 18.4 7.9 Q19.8 7.9 19.8 9.45 L19.8 14.05 Q19.7 15.4 18.65 15.4 L19.2 16.1 20.8 19.6 Q21.0 20.5 20.1 20.95 19.0 21.3 18.55 20.6 L18.3 20.15 18.1 19.8 12.35 20.25 8.3 20.5 Q7.25 20.4 7.05 19.25 7.05 18.25 8.15 18.05 L12.35 18.0 12.35 15.4 8.75 15.4 Q7.4 15.4 7.4 14.2 L7.4 9.35 Q7.4 8.0 8.75 7.9 L12.35 7.9 12.35 6.75 9.55 6.75 Q8.3 6.75 8.3 5.6 L8.3 1.7 Q8.3 0.8 9.5 0.65 L17.85 0.65 Q19.0 0.8 19.2 1.9 L19.2 5.4 M17.1 10.35 L14.85 10.35 14.85 13.05 17.1 13.05 17.4 12.75 17.4 10.6 17.1 10.35 M6.9 2.15 L6.9 6.65 Q6.9 8.2 5.15 8.1 L3.0 8.1 2.85 10.6 5.35 10.6 Q6.7 10.7 6.8 12.4 L6.7 15.45 6.6 17.6 Q6.25 21.15 4.0 21.05 L0.85 20.6 Q-0.15 20.25 0.05 19.05 0.3 18.15 1.4 18.25 4.25 18.95 4.2 17.6 L4.35 13.3 1.6 13.3 Q-0.05 13.4 0.25 11.95 L0.6 6.3 Q0.7 5.4 1.95 5.4 L4.45 5.4 4.45 3.25 1.3 3.25 Q0.15 3.25 0.05 1.9 0.25 0.65 1.4 0.55 L5.35 0.55 Q6.8 0.65 6.9 2.15 M9.85 10.6 L9.85 12.75 10.1 13.05 12.35 13.05 12.35 10.35 10.1 10.35 9.85 10.6 M17.2 17.6 L17.05 17.45 Q16.4 16.1 16.95 15.4 L14.85 15.4 14.85 17.8 16.95 17.7 17.2 17.6" fill="#ffffff" fill-rule="evenodd" stroke="none"/>
    </g>
  </defs>
</svg>
