<?xml version="1.0" encoding="UTF-8" standalone="no"?>
<svg xmlns:ffdec="https://www.free-decompiler.com/flash" xmlns:xlink="http://www.w3.org/1999/xlink" ffdec:objectType="frame" height="25.0px" width="81.0px" xmlns="http://www.w3.org/2000/svg">
  <g transform="matrix(1.0, 0.0, 0.0, 1.0, 6.5, 4.5)">
    <g class="button" transform="matrix(1.0, 0.0, 0.0, 1.0, 0.0, 0.0)">
      <g class="button-frame button-frame-up" transform="matrix(1.0, 0.0, 0.0, 1.0, 0.0, 0.0)">
        <use ffdec:characterId="241" height="16.85" transform="matrix(1.0, 0.0, 0.0, 1.0, 0.0, -2.0)" width="70.25" xlink:href="#shape0"/>
      </g>
      <g class="button-frame button-frame-over" transform="matrix(1.0, 0.0, 0.0, 1.0, 0.0, 0.0)">
        <use ffdec:characterId="242" height="16.85" transform="matrix(1.0, 0.0, 0.0, 1.0, 0.0, 0.0)" width="70.25" xlink:href="#shape1"/>
      </g>
      <g class="button-frame button-frame-down" transform="matrix(1.0, 0.0, 0.0, 1.0, 0.0, 0.0)">
        <use ffdec:characterId="241" height="16.85" transform="matrix(1.0, 0.0, 0.0, 1.0, 0.0, 0.0)" width="70.25" xlink:href="#shape0"/>
      </g>
      <g class="button-frame button-frame-hittest" transform="matrix(1.0, 0.0, 0.0, 1.0, 0.0, 0.0)">
        <use ffdec:characterId="243" height="25.0" transform="matrix(1.0, 0.0, 0.0, 1.0, 0.0, 0.0)" width="81.0" xlink:href="#shape2"/>
      </g>
    </g>
  </g>
  <defs>
    <style><![CDATA[
    .button-frame {
      pointer-events: none;
    }

    .button-frame-up,
    .button-frame-over,
    .button-frame-down {
      opacity: 0;
    }

    .button .button-frame-up {
      opacity: 1;
    }

    .button:hover .button-frame-up {
      opacity: 0;
    }
    .button:hover .button-frame-over {
      opacity: 1;
    }

    .button:active .button-frame-over {
      opacity: 0;
    }
    .button:active .button-frame-down {
      opacity: 1;
    }

    .button-frame-hittest {
      opacity: 0;
      pointer-events: all;
      cursor: pointer;
    }
]]></style>
    <g id="shape0">
      <path d="M69.25 5.1 Q67.0 6.5 64.35 6.95 L64.35 7.9 Q64.35 8.5 64.95 8.4 L67.05 8.4 Q68.05 8.55 68.0 7.35 68.05 6.5 68.9 6.45 69.8 6.45 69.9 7.3 69.95 10.6 67.15 10.4 L64.95 10.4 Q62.2 10.5 62.45 8.7 L62.45 7.55 Q62.2 8.25 61.6 8.15 L60.8 7.65 60.6 7.2 57.6 7.55 55.25 7.65 Q53.65 7.8 54.05 6.3 54.2 5.6 56.05 3.15 L56.15 2.95 Q56.8 2.15 57.65 2.45 58.5 2.8 58.15 3.65 L57.3 4.95 57.0 5.4 Q56.8 5.6 56.95 5.65 L57.45 5.65 59.7 5.55 59.15 4.6 Q58.7 3.9 59.55 3.5 60.4 3.2 60.95 3.9 L62.45 6.5 62.45 3.15 Q62.45 2.45 63.35 2.35 64.25 2.45 64.35 3.15 L64.35 4.95 Q66.3 4.6 68.05 3.4 68.9 2.95 69.55 3.65 70.05 4.5 69.25 5.1 M63.3 10.75 Q64.25 10.75 64.35 11.6 L64.35 12.75 Q66.1 12.55 68.25 11.5 69.2 11.15 69.65 11.95 70.05 12.75 69.2 13.35 67.35 14.45 64.35 14.75 L64.35 15.6 Q64.25 16.7 65.15 16.55 L66.7 16.55 Q68.2 16.65 68.2 15.45 68.25 14.45 69.25 14.4 70.25 14.45 70.25 15.45 70.15 18.45 66.85 18.45 L65.1 18.45 Q62.2 18.55 62.35 16.65 L62.35 11.65 Q62.35 10.8 63.3 10.75 M61.65 16.65 Q61.75 18.45 59.25 18.4 57.85 18.35 57.6 17.6 57.35 16.65 58.5 16.5 L58.8 16.55 Q59.75 16.8 59.7 15.95 L59.7 15.1 56.55 15.1 56.55 17.85 Q56.45 18.6 55.55 18.7 54.65 18.6 54.65 17.85 L54.65 9.45 Q54.65 8.2 55.9 8.15 L60.2 8.15 Q61.65 8.15 61.65 9.7 L61.65 16.65 M51.55 5.8 L47.95 5.8 47.95 7.85 50.4 7.85 Q51.75 7.9 51.75 9.4 51.55 12.2 48.8 15.15 L51.45 16.65 Q52.5 17.0 52.25 18.1 51.8 19.05 50.7 18.7 48.95 18.0 47.05 16.55 44.65 18.2 42.55 18.75 41.25 19.1 40.85 18.35 40.55 17.25 41.7 16.85 43.6 16.35 45.35 15.15 43.4 13.25 42.8 11.3 42.45 10.05 43.6 9.9 L43.05 9.9 Q42.05 9.9 41.95 8.9 42.05 7.9 43.05 7.85 L45.9 7.85 45.9 5.8 42.9 5.8 Q41.95 5.8 41.9 4.85 41.95 3.9 42.9 3.85 L45.9 3.85 45.9 2.85 Q45.9 2.1 46.95 2.0 47.95 2.1 48.0 2.85 L48.0 3.85 51.55 3.85 Q52.45 3.9 52.5 4.85 52.45 5.8 51.55 5.8 M59.7 10.15 L59.5 9.9 56.8 9.9 56.6 10.15 56.6 10.85 59.7 10.85 59.7 10.15 M42.05 6.1 Q41.95 7.1 41.05 7.1 L40.15 7.1 40.15 10.1 41.25 9.75 Q41.95 9.7 42.2 10.6 42.25 11.3 41.55 11.65 L40.15 12.3 40.15 16.85 Q40.05 19.3 36.9 18.55 36.0 18.2 36.15 17.15 36.4 16.35 37.35 16.55 38.05 16.8 38.1 16.3 L38.1 12.9 37.8 13.05 37.1 13.25 Q36.15 13.55 35.85 12.65 35.7 11.65 36.7 11.3 L37.75 10.95 38.1 10.75 38.1 7.1 37.1 7.1 Q36.2 7.1 36.15 6.1 36.2 5.2 37.1 5.1 L38.1 5.1 38.1 3.05 Q38.1 2.15 39.1 2.0 40.05 2.15 40.15 3.05 L40.15 5.1 41.05 5.1 Q41.95 5.2 42.05 6.1 M44.85 11.15 Q45.55 12.55 47.05 13.9 48.45 12.65 49.35 10.5 49.5 9.95 48.95 9.9 L43.85 9.9 Q44.3 10.05 44.85 11.15 M59.7 12.5 L56.6 12.5 56.6 13.5 59.7 13.5 59.7 12.5 M31.65 7.5 L30.25 7.5 Q29.95 14.75 27.15 18.05 26.15 19.15 25.25 18.75 24.4 18.05 24.95 17.2 L24.6 16.5 19.8 17.25 Q17.65 17.25 18.4 14.95 L20.4 9.75 18.9 9.75 Q18.05 9.75 18.05 8.7 18.15 7.7 19.0 7.65 L25.5 7.65 Q26.3 7.7 26.3 8.75 26.2 9.75 25.45 9.75 L22.65 9.75 22.2 10.75 21.0 14.1 Q20.75 14.8 20.9 15.0 L21.6 15.0 23.95 14.55 23.55 13.6 23.2 12.7 Q22.85 11.8 23.6 11.35 24.55 11.1 25.05 11.85 L26.35 15.3 Q28.0 12.75 28.2 7.5 L26.9 7.5 Q26.0 7.5 25.95 6.5 25.95 5.45 26.85 5.4 L28.35 5.4 28.35 3.15 Q28.35 2.3 29.25 2.25 30.3 2.25 30.35 3.0 L30.35 5.4 32.5 5.4 Q34.05 5.4 34.05 6.85 L33.9 12.7 33.75 16.2 Q33.6 17.5 32.95 18.0 L29.75 18.35 Q28.75 18.0 28.9 17.0 29.15 16.2 30.15 16.35 31.65 16.7 31.8 15.5 L31.9 12.55 32.0 8.0 Q32.0 7.5 31.65 7.5 M26.1 4.5 Q26.0 5.45 25.25 5.45 L19.2 5.45 Q18.35 5.45 18.3 4.5 18.3 3.5 19.1 3.4 L25.25 3.4 Q26.0 3.5 26.1 4.5 M15.9 6.15 Q15.9 7.15 15.05 7.15 L9.3 7.15 9.3 10.3 14.4 10.3 Q15.2 10.4 15.25 11.35 15.2 12.35 14.4 12.35 L9.3 12.35 9.3 16.2 15.45 16.2 Q16.25 16.3 16.3 17.15 16.25 18.1 15.45 18.2 L0.9 18.2 Q0.05 18.1 0.0 17.15 0.05 16.3 0.9 16.2 L7.25 16.2 7.25 12.35 1.9 12.35 Q1.05 12.35 1.05 11.35 1.1 10.4 1.95 10.3 L7.25 10.3 7.25 7.15 1.4 7.15 Q0.7 7.15 0.65 6.15 0.7 5.2 1.4 5.1 L7.65 5.1 6.6 3.85 Q6.05 3.3 6.65 2.65 7.4 2.0 8.1 2.5 L9.35 3.85 Q10.0 4.7 9.4 5.1 L14.95 5.1 Q15.8 5.2 15.9 6.15" fill="#ffffff" fill-rule="evenodd" stroke="none"/>
    </g>
    <g id="shape1">
      <path d="M69.9 5.3 Q69.95 8.6 67.15 8.4 L64.95 8.4 Q62.2 8.5 62.45 6.7 L62.45 5.55 Q62.2 6.25 61.6 6.15 L60.8 5.65 60.6 5.2 57.6 5.55 55.25 5.65 Q53.65 5.8 54.05 4.3 54.2 3.6 56.05 1.15 L56.15 0.95 Q56.8 0.15 57.65 0.45 58.5 0.8 58.15 1.65 L57.3 2.95 57.0 3.4 Q56.8 3.6 56.95 3.65 L57.45 3.65 59.7 3.55 59.15 2.6 Q58.7 1.9 59.55 1.5 60.4 1.2 60.95 1.9 L62.45 4.5 62.45 1.15 Q62.45 0.45 63.35 0.35 64.25 0.45 64.35 1.15 L64.35 2.95 Q66.3 2.6 68.05 1.4 68.9 0.95 69.55 1.65 70.05 2.5 69.25 3.1 67.0 4.5 64.35 4.95 L64.35 5.9 Q64.35 6.5 64.95 6.4 L67.05 6.4 Q68.05 6.55 68.0 5.35 68.05 4.5 68.9 4.45 69.8 4.45 69.9 5.3 M64.35 10.75 Q66.1 10.55 68.25 9.5 69.2 9.15 69.65 9.95 70.05 10.75 69.2 11.35 67.35 12.45 64.35 12.75 L64.35 13.6 Q64.25 14.7 65.15 14.55 L66.7 14.55 Q68.2 14.65 68.2 13.45 68.25 12.45 69.25 12.4 70.25 12.45 70.25 13.45 70.15 16.45 66.85 16.45 L65.1 16.45 Q62.2 16.55 62.35 14.65 L62.35 9.65 Q62.35 8.8 63.3 8.75 64.25 8.75 64.35 9.6 L64.35 10.75 M61.65 14.65 Q61.75 16.45 59.25 16.4 57.85 16.35 57.6 15.6 57.35 14.65 58.5 14.5 L58.8 14.55 Q59.75 14.8 59.7 13.95 L59.7 13.1 56.55 13.1 56.55 15.85 Q56.45 16.6 55.55 16.7 54.65 16.6 54.65 15.85 L54.65 7.45 Q54.65 6.2 55.9 6.15 L60.2 6.15 Q61.65 6.15 61.65 7.7 L61.65 14.65 M52.5 2.85 Q52.45 3.8 51.55 3.8 L47.95 3.8 47.95 5.85 50.4 5.85 Q51.75 5.9 51.75 7.4 51.55 10.2 48.8 13.15 L51.45 14.65 Q52.5 15.0 52.25 16.1 51.8 17.05 50.7 16.7 48.95 16.0 47.05 14.55 44.65 16.2 42.55 16.75 41.25 17.1 40.85 16.35 40.55 15.25 41.7 14.85 43.6 14.35 45.35 13.15 43.4 11.25 42.8 9.3 42.45 8.05 43.6 7.9 L43.05 7.9 Q42.05 7.9 41.95 6.9 42.05 5.9 43.05 5.85 L45.9 5.85 45.9 3.8 42.9 3.8 Q41.95 3.8 41.9 2.85 41.95 1.9 42.9 1.85 L45.9 1.85 45.9 0.85 Q45.9 0.1 46.95 0.0 47.95 0.1 48.0 0.85 L48.0 1.85 51.55 1.85 Q52.45 1.9 52.5 2.85 M59.5 7.9 L56.8 7.9 56.6 8.15 56.6 8.85 59.7 8.85 59.7 8.15 59.5 7.9 M56.6 11.5 L59.7 11.5 59.7 10.5 56.6 10.5 56.6 11.5 M42.05 4.1 Q41.95 5.1 41.05 5.1 L40.15 5.1 40.15 8.1 41.25 7.75 Q41.95 7.7 42.2 8.6 42.25 9.3 41.55 9.65 L40.15 10.3 40.15 14.85 Q40.05 17.3 36.9 16.55 36.0 16.2 36.15 15.15 36.4 14.35 37.35 14.55 38.05 14.8 38.1 14.3 L38.1 10.9 37.8 11.05 37.1 11.25 Q36.15 11.55 35.85 10.65 35.7 9.65 36.7 9.3 L37.75 8.95 38.1 8.75 38.1 5.1 37.1 5.1 Q36.2 5.1 36.15 4.1 36.2 3.2 37.1 3.1 L38.1 3.1 38.1 1.05 Q38.1 0.15 39.1 0.0 40.05 0.15 40.15 1.05 L40.15 3.1 41.05 3.1 Q41.95 3.2 42.05 4.1 M44.85 9.15 Q45.55 10.55 47.05 11.9 48.45 10.65 49.35 8.5 49.5 7.95 48.95 7.9 L43.85 7.9 Q44.3 8.05 44.85 9.15 M34.05 4.85 L33.9 10.7 33.75 14.2 Q33.6 15.5 32.95 16.0 L29.75 16.35 Q28.75 16.0 28.9 15.0 29.15 14.2 30.15 14.35 31.65 14.7 31.8 13.5 L31.9 10.55 32.0 6.0 Q32.0 5.5 31.65 5.5 L30.25 5.5 Q29.95 12.75 27.15 16.05 26.15 17.15 25.25 16.75 24.4 16.05 24.95 15.2 L24.6 14.5 19.8 15.25 Q17.65 15.25 18.4 12.95 L20.4 7.75 18.9 7.75 Q18.05 7.75 18.05 6.7 18.15 5.7 19.0 5.65 L25.5 5.65 Q26.3 5.7 26.3 6.75 26.2 7.75 25.45 7.75 L22.65 7.75 22.2 8.75 21.0 12.1 Q20.75 12.8 20.9 13.0 L21.6 13.0 23.95 12.55 23.55 11.6 23.2 10.7 Q22.85 9.8 23.6 9.35 24.55 9.1 25.05 9.85 L26.35 13.3 Q28.0 10.75 28.2 5.5 L26.9 5.5 Q26.0 5.5 25.95 4.5 25.95 3.45 26.85 3.4 L28.35 3.4 28.35 1.15 Q28.35 0.3 29.25 0.25 30.3 0.25 30.35 1.0 L30.35 3.4 32.5 3.4 Q34.05 3.4 34.05 4.85 M25.25 3.45 L19.2 3.45 Q18.35 3.45 18.3 2.5 18.3 1.5 19.1 1.4 L25.25 1.4 Q26.0 1.5 26.1 2.5 26.0 3.45 25.25 3.45 M15.9 4.15 Q15.9 5.15 15.05 5.15 L9.3 5.15 9.3 8.3 14.4 8.3 Q15.2 8.4 15.25 9.35 15.2 10.35 14.4 10.35 L9.3 10.35 9.3 14.2 15.45 14.2 Q16.25 14.3 16.3 15.15 16.25 16.1 15.45 16.2 L0.9 16.2 Q0.05 16.1 0.0 15.15 0.05 14.3 0.9 14.2 L7.25 14.2 7.25 10.35 1.9 10.35 Q1.05 10.35 1.05 9.35 1.1 8.4 1.95 8.3 L7.25 8.3 7.25 5.15 1.4 5.15 Q0.7 5.15 0.65 4.15 0.7 3.2 1.4 3.1 L7.65 3.1 6.6 1.85 Q6.05 1.3 6.65 0.65 7.4 0.0 8.1 0.5 L9.35 1.85 Q10.0 2.7 9.4 3.1 L14.95 3.1 Q15.8 3.2 15.9 4.15" fill="#ff9900" fill-rule="evenodd" stroke="none"/>
    </g>
    <g id="shape2">
      <path d="M69.9 5.3 Q69.95 8.6 67.15 8.4 L64.95 8.4 Q62.2 8.5 62.45 6.7 L62.45 5.55 Q62.2 6.25 61.6 6.15 L60.8 5.65 60.6 5.2 57.6 5.55 55.25 5.65 Q53.65 5.8 54.05 4.3 54.2 3.6 56.05 1.15 L56.15 0.95 Q56.8 0.15 57.65 0.45 58.5 0.8 58.15 1.65 L57.3 2.95 57.0 3.4 Q56.8 3.6 56.95 3.65 L57.45 3.65 59.7 3.55 59.15 2.6 Q58.7 1.9 59.55 1.5 60.4 1.2 60.95 1.9 L62.45 4.5 62.45 1.15 Q62.45 0.45 63.35 0.35 64.25 0.45 64.35 1.15 L64.35 2.95 Q66.3 2.6 68.05 1.4 68.9 0.95 69.55 1.65 70.05 2.5 69.25 3.1 67.0 4.5 64.35 4.95 L64.35 5.9 Q64.35 6.5 64.95 6.4 L67.05 6.4 Q68.05 6.55 68.0 5.35 68.05 4.5 68.9 4.45 69.8 4.45 69.9 5.3 M63.3 8.75 Q64.25 8.75 64.35 9.6 L64.35 10.75 Q66.1 10.55 68.25 9.5 69.2 9.15 69.65 9.95 70.05 10.75 69.2 11.35 67.35 12.45 64.35 12.75 L64.35 13.6 Q64.25 14.7 65.15 14.55 L66.7 14.55 Q68.2 14.65 68.2 13.45 68.25 12.45 69.25 12.4 70.25 12.45 70.25 13.45 70.15 16.45 66.85 16.45 L65.1 16.45 Q62.2 16.55 62.35 14.65 L62.35 9.65 Q62.35 8.8 63.3 8.75 M61.65 14.65 Q61.75 16.45 59.25 16.4 57.85 16.35 57.6 15.6 57.35 14.65 58.5 14.5 L58.8 14.55 Q59.75 14.8 59.7 13.95 L59.7 13.1 56.55 13.1 56.55 15.85 Q56.45 16.6 55.55 16.7 54.65 16.6 54.65 15.85 L54.65 7.45 Q54.65 6.2 55.9 6.15 L60.2 6.15 Q61.65 6.15 61.65 7.7 L61.65 14.65 M51.55 3.8 L47.95 3.8 47.95 5.85 50.4 5.85 Q51.75 5.9 51.75 7.4 51.55 10.2 48.8 13.15 L51.45 14.65 Q52.5 15.0 52.25 16.1 51.8 17.05 50.7 16.7 48.95 16.0 47.05 14.55 44.65 16.2 42.55 16.75 41.25 17.1 40.85 16.35 40.55 15.25 41.7 14.85 43.6 14.35 45.35 13.15 43.4 11.25 42.8 9.3 42.45 8.05 43.6 7.9 L43.05 7.9 Q42.05 7.9 41.95 6.9 42.05 5.9 43.05 5.85 L45.9 5.85 45.9 3.8 42.9 3.8 Q41.95 3.8 41.9 2.85 41.95 1.9 42.9 1.85 L45.9 1.85 45.9 0.85 Q45.9 0.1 46.95 0.0 47.95 0.1 48.0 0.85 L48.0 1.85 51.55 1.85 Q52.45 1.9 52.5 2.85 52.45 3.8 51.55 3.8 M59.7 8.15 L59.5 7.9 56.8 7.9 56.6 8.15 56.6 8.85 59.7 8.85 59.7 8.15 M56.6 11.5 L59.7 11.5 59.7 10.5 56.6 10.5 56.6 11.5 M42.05 4.1 Q41.95 5.1 41.05 5.1 L40.15 5.1 40.15 8.1 41.25 7.75 Q41.95 7.7 42.2 8.6 42.25 9.3 41.55 9.65 L40.15 10.3 40.15 14.85 Q40.05 17.3 36.9 16.55 36.0 16.2 36.15 15.15 36.4 14.35 37.35 14.55 38.05 14.8 38.1 14.3 L38.1 10.9 37.8 11.05 37.1 11.25 Q36.15 11.55 35.85 10.65 35.7 9.65 36.7 9.3 L37.75 8.95 38.1 8.75 38.1 5.1 37.1 5.1 Q36.2 5.1 36.15 4.1 36.2 3.2 37.1 3.1 L38.1 3.1 38.1 1.05 Q38.1 0.15 39.1 0.0 40.05 0.15 40.15 1.05 L40.15 3.1 41.05 3.1 Q41.95 3.2 42.05 4.1 M44.85 9.15 Q45.55 10.55 47.05 11.9 48.45 10.65 49.35 8.5 49.5 7.95 48.95 7.9 L43.85 7.9 Q44.3 8.05 44.85 9.15 M31.65 5.5 L30.25 5.5 Q29.95 12.75 27.15 16.05 26.15 17.15 25.25 16.75 24.4 16.05 24.95 15.2 L24.6 14.5 19.8 15.25 Q17.65 15.25 18.4 12.95 L20.4 7.75 18.9 7.75 Q18.05 7.75 18.05 6.7 18.15 5.7 19.0 5.65 L25.5 5.65 Q26.3 5.7 26.3 6.75 26.2 7.75 25.45 7.75 L22.65 7.75 22.2 8.75 21.0 12.1 Q20.75 12.8 20.9 13.0 L21.6 13.0 23.95 12.55 23.55 11.6 23.2 10.7 Q22.85 9.8 23.6 9.35 24.55 9.1 25.05 9.85 L26.35 13.3 Q28.0 10.75 28.2 5.5 L26.9 5.5 Q26.0 5.5 25.95 4.5 25.95 3.45 26.85 3.4 L28.35 3.4 28.35 1.15 Q28.35 0.3 29.25 0.25 30.3 0.25 30.35 1.0 L30.35 3.4 32.5 3.4 Q34.05 3.4 34.05 4.85 L33.9 10.7 33.75 14.2 Q33.6 15.5 32.95 16.0 L29.75 16.35 Q28.75 16.0 28.9 15.0 29.15 14.2 30.15 14.35 31.65 14.7 31.8 13.5 L31.9 10.55 32.0 6.0 Q32.0 5.5 31.65 5.5 M26.1 2.5 Q26.0 3.45 25.25 3.45 L19.2 3.45 Q18.35 3.45 18.3 2.5 18.3 1.5 19.1 1.4 L25.25 1.4 Q26.0 1.5 26.1 2.5 M15.9 4.15 Q15.9 5.15 15.05 5.15 L9.3 5.15 9.3 8.3 14.4 8.3 Q15.2 8.4 15.25 9.35 15.2 10.35 14.4 10.35 L9.3 10.35 9.3 14.2 15.45 14.2 Q16.25 14.3 16.3 15.15 16.25 16.1 15.45 16.2 L0.9 16.2 Q0.05 16.1 0.0 15.15 0.05 14.3 0.9 14.2 L7.25 14.2 7.25 10.35 1.9 10.35 Q1.05 10.35 1.05 9.35 1.1 8.4 1.95 8.3 L7.25 8.3 7.25 5.15 1.4 5.15 Q0.7 5.15 0.65 4.15 0.7 3.2 1.4 3.1 L7.65 3.1 6.6 1.85 Q6.05 1.3 6.65 0.65 7.4 0.0 8.1 0.5 L9.35 1.85 Q10.0 2.7 9.4 3.1 L14.95 3.1 Q15.8 3.2 15.9 4.15" fill="#ff6600" fill-rule="evenodd" stroke="none"/>
      <path d="M74.0 20.0 L-6.0 20.0 -6.0 -4.0 74.0 -4.0 74.0 20.0" fill="#ff6600" fill-rule="evenodd" stroke="none"/>
      <path d="M74.0 20.0 L-6.0 20.0 -6.0 -4.0 74.0 -4.0 74.0 20.0 Z" fill="none" stroke="#ffffff" stroke-linecap="round" stroke-linejoin="round" stroke-width="1.0"/>
    </g>
  </defs>
</svg>
