<?xml version="1.0" encoding="UTF-8" standalone="no"?>
<svg xmlns:ffdec="https://www.free-decompiler.com/flash" xmlns:xlink="http://www.w3.org/1999/xlink" ffdec:objectType="frame" height="24.0px" width="79.0px" xmlns="http://www.w3.org/2000/svg">
  <g transform="matrix(1.0, 0.0, 0.0, 1.0, 4.5, 3.5)">
    <g class="button" transform="matrix(1.0, 0.0, 0.0, 1.0, 0.0, 0.0)">
      <g class="button-frame button-frame-up" transform="matrix(1.0, 0.0, 0.0, 1.0, 0.0, 0.0)">
        <use ffdec:characterId="245" height="16.85" transform="matrix(1.0, 0.0, 0.0, 1.0, 0.0, -2.0)" width="70.55" xlink:href="#shape0"/>
      </g>
      <g class="button-frame button-frame-over" transform="matrix(1.0, 0.0, 0.0, 1.0, 0.0, 0.0)">
        <use ffdec:characterId="246" height="16.85" transform="matrix(1.0, 0.0, 0.0, 1.0, 0.0, 0.0)" width="70.55" xlink:href="#shape1"/>
      </g>
      <g class="button-frame button-frame-down" transform="matrix(1.0, 0.0, 0.0, 1.0, 0.0, 0.0)">
        <use ffdec:characterId="245" height="16.85" transform="matrix(1.0, 0.0, 0.0, 1.0, 0.0, 0.0)" width="70.55" xlink:href="#shape0"/>
      </g>
      <g class="button-frame button-frame-hittest" transform="matrix(1.0, 0.0, 0.0, 1.0, 0.0, 0.0)">
        <use ffdec:characterId="247" height="24.0" transform="matrix(1.0, 0.0, 0.0, 1.0, 0.0, 0.0)" width="79.0" xlink:href="#shape2"/>
      </g>
    </g>
  </g>
  <defs>
    <style><![CDATA[
    .button-frame {
      pointer-events: none;
    }

    .button-frame-up,
    .button-frame-over,
    .button-frame-down {
      opacity: 0;
    }

    .button .button-frame-up {
      opacity: 1;
    }

    .button:hover .button-frame-up {
      opacity: 0;
    }
    .button:hover .button-frame-over {
      opacity: 1;
    }

    .button:active .button-frame-over {
      opacity: 0;
    }
    .button:active .button-frame-down {
      opacity: 1;
    }

    .button-frame-hittest {
      opacity: 0;
      pointer-events: all;
      cursor: pointer;
    }
]]></style>
    <g id="shape0">
      <path d="M69.55 5.1 Q67.3 6.5 64.65 6.95 L64.65 7.9 Q64.65 8.5 65.25 8.4 L67.35 8.4 Q68.35 8.55 68.3 7.35 68.35 6.5 69.2 6.45 70.1 6.45 70.2 7.3 70.25 10.6 67.45 10.4 L65.25 10.4 Q62.5 10.5 62.75 8.7 L62.75 7.55 Q62.5 8.25 61.9 8.15 61.4 8.15 61.1 7.65 L60.9 7.2 57.9 7.55 55.55 7.65 Q53.95 7.8 54.35 6.3 54.5 5.6 56.35 3.15 L56.45 2.95 Q57.1 2.15 57.95 2.45 58.8 2.8 58.45 3.65 L57.6 4.95 57.3 5.4 Q57.1 5.6 57.25 5.65 L57.75 5.65 60.0 5.55 59.45 4.6 Q59.0 3.9 59.85 3.5 60.7 3.2 61.25 3.9 L62.75 6.5 62.75 3.15 Q62.75 2.45 63.65 2.35 64.55 2.45 64.65 3.15 L64.65 4.95 Q66.6 4.6 68.35 3.4 69.2 2.95 69.85 3.65 70.35 4.5 69.55 5.1 M64.65 11.6 L64.65 12.75 Q66.4 12.55 68.55 11.5 69.5 11.15 69.95 11.95 70.35 12.75 69.5 13.35 67.65 14.45 64.65 14.75 L64.65 15.6 Q64.55 16.7 65.45 16.55 L67.0 16.55 Q68.5 16.65 68.5 15.45 68.55 14.45 69.55 14.4 70.55 14.45 70.55 15.45 70.45 18.45 67.15 18.45 L65.4 18.45 Q62.5 18.55 62.65 16.65 L62.65 11.65 Q62.65 10.8 63.6 10.75 64.55 10.75 64.65 11.6 M61.95 16.65 Q62.05 18.45 59.55 18.4 58.15 18.35 57.9 17.6 57.65 16.65 58.8 16.5 L59.1 16.55 Q60.05 16.8 60.0 15.95 L60.0 15.1 56.85 15.1 56.85 17.85 Q56.75 18.6 55.85 18.7 54.95 18.6 54.95 17.85 L54.95 9.45 Q54.95 8.2 56.2 8.15 L60.5 8.15 Q61.95 8.15 61.95 9.7 L61.95 16.65 M51.85 5.8 L48.25 5.8 48.25 7.85 50.7 7.85 Q52.05 7.9 52.05 9.4 51.85 12.2 49.1 15.15 50.2 16.0 51.75 16.65 52.8 17.0 52.55 18.1 52.1 19.05 51.0 18.7 49.25 18.0 47.35 16.55 44.95 18.2 42.85 18.75 41.55 19.1 41.15 18.35 40.85 17.25 42.0 16.85 43.9 16.35 45.65 15.15 43.7 13.25 43.1 11.3 42.75 10.05 43.9 9.9 L43.35 9.9 Q42.35 9.9 42.25 8.9 42.35 7.9 43.35 7.85 L46.2 7.85 46.2 5.8 43.2 5.8 Q42.25 5.8 42.2 4.85 42.25 3.9 43.2 3.85 L46.2 3.85 46.2 2.85 Q46.2 2.1 47.25 2.0 48.25 2.1 48.3 2.85 L48.3 3.85 51.85 3.85 Q52.75 3.9 52.8 4.85 52.75 5.8 51.85 5.8 M60.0 10.15 L59.8 9.9 57.1 9.9 56.9 10.15 56.9 10.85 60.0 10.85 60.0 10.15 M42.35 6.1 Q42.25 7.1 41.35 7.1 L40.45 7.1 40.45 10.1 41.55 9.75 Q42.25 9.7 42.5 10.6 42.55 11.3 41.85 11.65 L40.45 12.3 40.45 16.85 Q40.35 19.3 37.2 18.55 36.3 18.2 36.45 17.15 36.7 16.35 37.65 16.55 38.35 16.8 38.4 16.3 L38.4 12.9 38.1 13.05 37.4 13.25 Q36.45 13.55 36.15 12.65 36.0 11.65 37.0 11.3 L38.05 10.95 Q38.25 10.8 38.4 10.75 L38.4 7.1 37.4 7.1 Q36.5 7.1 36.45 6.1 36.5 5.2 37.4 5.1 L38.4 5.1 38.4 3.05 Q38.4 2.15 39.4 2.0 40.35 2.15 40.45 3.05 L40.45 5.1 41.35 5.1 Q42.25 5.2 42.35 6.1 M45.15 11.15 Q45.85 12.55 47.35 13.9 48.75 12.65 49.65 10.5 49.8 9.95 49.25 9.9 L44.15 9.9 Q44.6 10.05 45.15 11.15 M60.0 12.5 L56.9 12.5 56.9 13.5 60.0 13.5 60.0 12.5 M32.8 5.4 Q34.35 5.4 34.35 6.85 L34.2 12.7 34.05 16.2 Q33.9 17.5 33.25 18.0 L30.05 18.35 Q29.05 18.0 29.2 17.0 29.45 16.2 30.45 16.35 31.95 16.7 32.1 15.5 L32.2 12.55 32.3 8.0 Q32.3 7.5 31.95 7.5 L30.55 7.5 Q30.25 14.75 27.45 18.05 26.45 19.15 25.55 18.75 24.7 18.05 25.25 17.2 L24.9 16.5 20.1 17.25 Q17.95 17.25 18.7 14.95 L20.7 9.75 19.2 9.75 Q18.35 9.75 18.35 8.7 18.45 7.7 19.3 7.65 L25.8 7.65 Q26.6 7.7 26.6 8.75 26.5 9.75 25.75 9.75 L22.95 9.75 22.5 10.75 21.3 14.1 Q21.05 14.8 21.2 15.0 L21.9 15.0 24.25 14.55 23.85 13.6 23.5 12.7 Q23.15 11.8 23.9 11.35 24.85 11.1 25.35 11.85 L26.65 15.3 Q28.3 12.75 28.5 7.5 L27.2 7.5 Q26.3 7.5 26.25 6.5 26.25 5.45 27.15 5.4 L28.65 5.4 28.65 3.15 Q28.65 2.3 29.55 2.25 30.6 2.25 30.65 3.0 L30.65 5.4 32.8 5.4 M26.4 4.5 Q26.3 5.45 25.55 5.45 L19.5 5.45 Q18.65 5.45 18.6 4.5 18.6 3.5 19.4 3.4 L25.55 3.4 Q26.3 3.5 26.4 4.5 M16.7 5.8 L16.45 7.15 Q16.1 8.0 15.15 7.9 14.35 7.7 14.55 6.8 14.8 5.8 14.5 5.95 L12.65 5.95 12.65 8.25 14.45 8.25 Q16.25 8.25 16.1 9.7 15.6 12.55 14.0 15.1 L15.5 16.2 16.55 16.9 Q17.15 17.6 16.55 18.35 L15.2 18.4 12.6 16.55 Q10.85 18.0 9.35 18.7 8.3 19.05 7.9 18.2 7.6 17.35 8.6 16.85 L11.2 15.1 Q9.45 12.85 9.1 10.15 L8.75 10.15 8.75 11.25 Q8.75 15.65 6.85 18.35 6.25 19.05 5.35 18.7 4.6 18.25 5.1 17.5 6.9 14.6 6.9 11.15 L6.9 5.8 Q6.7 3.75 8.65 3.9 L10.75 3.9 10.75 2.8 Q10.75 2.1 11.7 2.0 12.6 2.1 12.65 2.8 L12.65 3.9 15.4 3.9 Q16.9 3.85 16.7 5.8 M11.0 10.15 Q11.45 12.15 12.6 13.6 L13.85 10.45 13.7 10.15 11.0 10.15 M10.75 5.95 L9.1 5.95 Q8.75 6.0 8.75 6.3 L8.75 8.25 10.75 8.25 10.75 5.95 M3.9 4.6 L4.7 4.6 Q6.4 4.6 5.9 6.15 5.15 8.4 4.25 9.8 L4.45 10.05 5.1 9.25 5.35 8.9 Q5.8 8.35 6.35 8.7 6.85 9.1 6.55 9.75 L5.55 11.15 6.35 12.15 Q6.7 12.9 6.15 13.4 5.55 13.85 5.0 13.1 L4.5 12.5 4.0 11.85 4.0 18.0 Q3.95 18.75 3.1 18.8 2.2 18.75 2.2 18.0 L2.2 12.55 Q1.05 13.95 0.15 13.0 -0.35 12.35 0.7 11.3 L0.95 11.0 Q2.85 9.0 3.8 6.5 L1.2 6.5 Q0.35 6.5 0.3 5.6 0.35 4.7 1.2 4.6 L2.95 4.6 1.7 3.3 Q1.5 2.35 2.6 2.15 3.9 2.7 4.3 3.85 4.25 4.6 3.9 4.6 L3.85 4.6 3.9 4.6" fill="#ffffff" fill-rule="evenodd" stroke="none"/>
    </g>
    <g id="shape1">
      <path d="M69.55 3.1 Q67.3 4.5 64.65 4.95 L64.65 5.9 Q64.65 6.5 65.25 6.4 L67.35 6.4 Q68.35 6.55 68.3 5.35 68.35 4.5 69.2 4.45 70.1 4.45 70.2 5.3 70.25 8.6 67.45 8.4 L65.25 8.4 Q62.5 8.5 62.75 6.7 L62.75 5.55 Q62.5 6.25 61.9 6.15 61.4 6.15 61.1 5.65 L60.9 5.2 57.9 5.55 55.55 5.65 Q53.95 5.8 54.35 4.3 54.5 3.6 56.35 1.15 L56.45 0.95 Q57.1 0.15 57.95 0.45 58.8 0.8 58.45 1.65 L57.6 2.95 57.3 3.4 Q57.1 3.6 57.25 3.65 L57.75 3.65 60.0 3.55 59.45 2.6 Q59.0 1.9 59.85 1.5 60.7 1.2 61.25 1.9 L62.75 4.5 62.75 1.15 Q62.75 0.45 63.65 0.35 64.55 0.45 64.65 1.15 L64.65 2.95 Q66.6 2.6 68.35 1.4 69.2 0.95 69.85 1.65 70.35 2.5 69.55 3.1 M64.65 10.75 Q66.4 10.55 68.55 9.5 69.5 9.15 69.95 9.95 70.35 10.75 69.5 11.35 67.65 12.45 64.65 12.75 L64.65 13.6 Q64.55 14.7 65.45 14.55 L67.0 14.55 Q68.5 14.65 68.5 13.45 68.55 12.45 69.55 12.4 70.55 12.45 70.55 13.45 70.45 16.45 67.15 16.45 L65.4 16.45 Q62.5 16.55 62.65 14.65 L62.65 9.65 Q62.65 8.8 63.6 8.75 64.55 8.75 64.65 9.6 L64.65 10.75 M61.95 14.65 Q62.05 16.45 59.55 16.4 58.15 16.35 57.9 15.6 57.65 14.65 58.8 14.5 L59.1 14.55 Q60.05 14.8 60.0 13.95 L60.0 13.1 56.85 13.1 56.85 15.85 Q56.75 16.6 55.85 16.7 54.95 16.6 54.95 15.85 L54.95 7.45 Q54.95 6.2 56.2 6.15 L60.5 6.15 Q61.95 6.15 61.95 7.7 L61.95 14.65 M52.8 2.85 Q52.75 3.8 51.85 3.8 L48.25 3.8 48.25 5.85 50.7 5.85 Q52.05 5.9 52.05 7.4 51.85 10.2 49.1 13.15 50.2 14.0 51.75 14.65 52.8 15.0 52.55 16.1 52.1 17.05 51.0 16.7 49.25 16.0 47.35 14.55 44.95 16.2 42.85 16.75 41.55 17.1 41.15 16.35 40.85 15.25 42.0 14.85 43.9 14.35 45.65 13.15 43.7 11.25 43.1 9.3 42.75 8.05 43.9 7.9 L43.35 7.9 Q42.35 7.9 42.25 6.9 42.35 5.9 43.35 5.85 L46.2 5.85 46.2 3.8 43.2 3.8 Q42.25 3.8 42.2 2.85 42.25 1.9 43.2 1.85 L46.2 1.85 46.2 0.85 Q46.2 0.1 47.25 0.0 48.25 0.1 48.3 0.85 L48.3 1.85 51.85 1.85 Q52.75 1.9 52.8 2.85 M59.8 7.9 L57.1 7.9 56.9 8.15 56.9 8.85 60.0 8.85 60.0 8.15 59.8 7.9 M56.9 11.5 L60.0 11.5 60.0 10.5 56.9 10.5 56.9 11.5 M42.35 4.1 Q42.25 5.1 41.35 5.1 L40.45 5.1 40.45 8.1 41.55 7.75 Q42.25 7.7 42.5 8.6 42.55 9.3 41.85 9.65 L40.45 10.3 40.45 14.85 Q40.35 17.3 37.2 16.55 36.3 16.2 36.45 15.15 36.7 14.35 37.65 14.55 38.35 14.8 38.4 14.3 L38.4 10.9 38.1 11.05 37.4 11.25 Q36.45 11.55 36.15 10.65 36.0 9.65 37.0 9.3 L38.05 8.95 Q38.25 8.8 38.4 8.75 L38.4 5.1 37.4 5.1 Q36.5 5.1 36.45 4.1 36.5 3.2 37.4 3.1 L38.4 3.1 38.4 1.05 Q38.4 0.15 39.4 0.0 40.35 0.15 40.45 1.05 L40.45 3.1 41.35 3.1 Q42.25 3.2 42.35 4.1 M45.15 9.15 Q45.85 10.55 47.35 11.9 48.75 10.65 49.65 8.5 49.8 7.95 49.25 7.9 L44.15 7.9 Q44.6 8.05 45.15 9.15 M32.8 3.4 Q34.35 3.4 34.35 4.85 L34.2 10.7 34.05 14.2 Q33.9 15.5 33.25 16.0 L30.05 16.35 Q29.05 16.0 29.2 15.0 29.45 14.2 30.45 14.35 31.95 14.7 32.1 13.5 L32.2 10.55 32.3 6.0 Q32.3 5.5 31.95 5.5 L30.55 5.5 Q30.25 12.75 27.45 16.05 26.45 17.15 25.55 16.75 24.7 16.05 25.25 15.2 L24.9 14.5 20.1 15.25 Q17.95 15.25 18.7 12.95 L20.7 7.75 19.2 7.75 Q18.35 7.75 18.35 6.7 18.45 5.7 19.3 5.65 L25.8 5.65 Q26.6 5.7 26.6 6.75 26.5 7.75 25.75 7.75 L22.95 7.75 22.5 8.75 21.3 12.1 Q21.05 12.8 21.2 13.0 L21.9 13.0 24.25 12.55 23.85 11.6 23.5 10.7 Q23.15 9.8 23.9 9.35 24.85 9.1 25.35 9.85 L26.65 13.3 Q28.3 10.75 28.5 5.5 L27.2 5.5 Q26.3 5.5 26.25 4.5 26.25 3.45 27.15 3.4 L28.65 3.4 28.65 1.15 Q28.65 0.3 29.55 0.25 30.6 0.25 30.65 1.0 L30.65 3.4 32.8 3.4 M26.4 2.5 Q26.3 3.45 25.55 3.45 L19.5 3.45 Q18.65 3.45 18.6 2.5 18.6 1.5 19.4 1.4 L25.55 1.4 Q26.3 1.5 26.4 2.5 M16.7 3.8 L16.45 5.15 Q16.1 6.0 15.15 5.9 14.35 5.7 14.55 4.8 14.8 3.8 14.5 3.95 L12.65 3.95 12.65 6.25 14.45 6.25 Q16.25 6.25 16.1 7.7 15.6 10.55 14.0 13.1 L15.5 14.2 16.55 14.9 Q17.15 15.6 16.55 16.35 L15.2 16.4 12.6 14.55 Q10.85 16.0 9.35 16.7 8.3 17.05 7.9 16.2 7.6 15.35 8.6 14.85 L11.2 13.1 Q9.45 10.85 9.1 8.15 L8.75 8.15 8.75 9.25 Q8.75 13.65 6.85 16.35 6.25 17.05 5.35 16.7 4.6 16.25 5.1 15.5 6.9 12.6 6.9 9.15 L6.9 3.8 Q6.7 1.75 8.65 1.9 L10.75 1.9 10.75 0.8 Q10.75 0.1 11.7 0.0 12.6 0.1 12.65 0.8 L12.65 1.9 15.4 1.9 Q16.9 1.85 16.7 3.8 M13.85 8.45 L13.7 8.15 11.0 8.15 Q11.45 10.15 12.6 11.6 L13.85 8.45 M10.75 3.95 L9.1 3.95 Q8.75 4.0 8.75 4.3 L8.75 6.25 10.75 6.25 10.75 3.95 M3.85 2.6 L4.7 2.6 Q6.4 2.6 5.9 4.15 5.15 6.4 4.25 7.8 L4.45 8.05 5.1 7.25 5.35 6.9 Q5.8 6.35 6.35 6.7 6.85 7.1 6.55 7.75 L5.55 9.15 6.35 10.15 Q6.7 10.9 6.15 11.4 5.55 11.85 5.0 11.1 L4.5 10.5 4.0 9.85 4.0 16.0 Q3.95 16.75 3.1 16.8 2.2 16.75 2.2 16.0 L2.2 10.55 Q1.05 11.95 0.15 11.0 -0.35 10.35 0.7 9.3 L0.95 9.0 Q2.85 7.0 3.8 4.5 L1.2 4.5 Q0.35 4.5 0.3 3.6 0.35 2.7 1.2 2.6 L2.95 2.6 1.7 1.3 Q1.5 0.35 2.6 0.15 3.9 0.7 4.3 1.85 4.25 2.6 3.85 2.6 L3.8 2.6 3.75 2.6 3.8 2.6 3.85 2.6" fill="#ff9900" fill-rule="evenodd" stroke="none"/>
    </g>
    <g id="shape2">
      <path d="M69.55 3.1 Q67.3 4.5 64.65 4.95 L64.65 5.9 Q64.65 6.5 65.25 6.4 L67.35 6.4 Q68.35 6.55 68.3 5.35 68.35 4.5 69.2 4.45 70.1 4.45 70.2 5.3 70.25 8.6 67.45 8.4 L65.25 8.4 Q62.5 8.5 62.75 6.7 L62.75 5.55 Q62.5 6.25 61.9 6.15 61.4 6.15 61.1 5.65 L60.9 5.2 57.9 5.55 55.55 5.65 Q53.95 5.8 54.35 4.3 54.5 3.6 56.35 1.15 L56.45 0.95 Q57.1 0.15 57.95 0.45 58.8 0.8 58.45 1.65 L57.6 2.95 57.3 3.4 Q57.1 3.6 57.25 3.65 L57.75 3.65 60.0 3.55 59.45 2.6 Q59.0 1.9 59.85 1.5 60.7 1.2 61.25 1.9 L62.75 4.5 62.75 1.15 Q62.75 0.45 63.65 0.35 64.55 0.45 64.65 1.15 L64.65 2.95 Q66.6 2.6 68.35 1.4 69.2 0.95 69.85 1.65 70.35 2.5 69.55 3.1 M63.6 8.75 Q64.55 8.75 64.65 9.6 L64.65 10.75 Q66.4 10.55 68.55 9.5 69.5 9.15 69.95 9.95 70.35 10.75 69.5 11.35 67.65 12.45 64.65 12.75 L64.65 13.6 Q64.55 14.7 65.45 14.55 L67.0 14.55 Q68.5 14.65 68.5 13.45 68.55 12.45 69.55 12.4 70.55 12.45 70.55 13.45 70.45 16.45 67.15 16.45 L65.4 16.45 Q62.5 16.55 62.65 14.65 L62.65 9.65 Q62.65 8.8 63.6 8.75 M61.95 14.65 Q62.05 16.45 59.55 16.4 58.15 16.35 57.9 15.6 57.65 14.65 58.8 14.5 L59.1 14.55 Q60.05 14.8 60.0 13.95 L60.0 13.1 56.85 13.1 56.85 15.85 Q56.75 16.6 55.85 16.7 54.95 16.6 54.95 15.85 L54.95 7.45 Q54.95 6.2 56.2 6.15 L60.5 6.15 Q61.95 6.15 61.95 7.7 L61.95 14.65 M51.85 3.8 L48.25 3.8 48.25 5.85 50.7 5.85 Q52.05 5.9 52.05 7.4 51.85 10.2 49.1 13.15 50.2 14.0 51.75 14.65 52.8 15.0 52.55 16.1 52.1 17.05 51.0 16.7 49.25 16.0 47.35 14.55 44.95 16.2 42.85 16.75 41.55 17.1 41.15 16.35 40.85 15.25 42.0 14.85 43.9 14.35 45.65 13.15 43.7 11.25 43.1 9.3 42.75 8.05 43.9 7.9 L43.35 7.9 Q42.35 7.9 42.25 6.9 42.35 5.9 43.35 5.85 L46.2 5.85 46.2 3.8 43.2 3.8 Q42.25 3.8 42.2 2.85 42.25 1.9 43.2 1.85 L46.2 1.85 46.2 0.85 Q46.2 0.1 47.25 0.0 48.25 0.1 48.3 0.85 L48.3 1.85 51.85 1.85 Q52.75 1.9 52.8 2.85 52.75 3.8 51.85 3.8 M60.0 8.15 L59.8 7.9 57.1 7.9 56.9 8.15 56.9 8.85 60.0 8.85 60.0 8.15 M56.9 11.5 L60.0 11.5 60.0 10.5 56.9 10.5 56.9 11.5 M42.35 4.1 Q42.25 5.1 41.35 5.1 L40.45 5.1 40.45 8.1 41.55 7.75 Q42.25 7.7 42.5 8.6 42.55 9.3 41.85 9.65 L40.45 10.3 40.45 14.85 Q40.35 17.3 37.2 16.55 36.3 16.2 36.45 15.15 36.7 14.35 37.65 14.55 38.35 14.8 38.4 14.3 L38.4 10.9 38.1 11.05 37.4 11.25 Q36.45 11.55 36.15 10.65 36.0 9.65 37.0 9.3 L38.05 8.95 Q38.25 8.8 38.4 8.75 L38.4 5.1 37.4 5.1 Q36.5 5.1 36.45 4.1 36.5 3.2 37.4 3.1 L38.4 3.1 38.4 1.05 Q38.4 0.15 39.4 0.0 40.35 0.15 40.45 1.05 L40.45 3.1 41.35 3.1 Q42.25 3.2 42.35 4.1 M45.15 9.15 Q45.85 10.55 47.35 11.9 48.75 10.65 49.65 8.5 49.8 7.95 49.25 7.9 L44.15 7.9 Q44.6 8.05 45.15 9.15 M34.35 4.85 L34.2 10.7 34.05 14.2 Q33.9 15.5 33.25 16.0 L30.05 16.35 Q29.05 16.0 29.2 15.0 29.45 14.2 30.45 14.35 31.95 14.7 32.1 13.5 L32.2 10.55 32.3 6.0 Q32.3 5.5 31.95 5.5 L30.55 5.5 Q30.25 12.75 27.45 16.05 26.45 17.15 25.55 16.75 24.7 16.05 25.25 15.2 L24.9 14.5 20.1 15.25 Q17.95 15.25 18.7 12.95 L20.7 7.75 19.2 7.75 Q18.35 7.75 18.35 6.7 18.45 5.7 19.3 5.65 L25.8 5.65 Q26.6 5.7 26.6 6.75 26.5 7.75 25.75 7.75 L22.95 7.75 22.5 8.75 21.3 12.1 Q21.05 12.8 21.2 13.0 L21.9 13.0 24.25 12.55 23.85 11.6 23.5 10.7 Q23.15 9.8 23.9 9.35 24.85 9.1 25.35 9.85 L26.65 13.3 Q28.3 10.75 28.5 5.5 L27.2 5.5 Q26.3 5.5 26.25 4.5 26.25 3.45 27.15 3.4 L28.65 3.4 28.65 1.15 Q28.65 0.3 29.55 0.25 30.6 0.25 30.65 1.0 L30.65 3.4 32.8 3.4 Q34.35 3.4 34.35 4.85 M26.4 2.5 Q26.3 3.45 25.55 3.45 L19.5 3.45 Q18.65 3.45 18.6 2.5 18.6 1.5 19.4 1.4 L25.55 1.4 Q26.3 1.5 26.4 2.5 M16.45 5.15 Q16.1 6.0 15.15 5.9 14.35 5.7 14.55 4.8 14.8 3.8 14.5 3.95 L12.65 3.95 12.65 6.25 14.45 6.25 Q16.25 6.25 16.1 7.7 15.6 10.55 14.0 13.1 L15.5 14.2 16.55 14.9 Q17.15 15.6 16.55 16.35 L15.2 16.4 12.6 14.55 Q10.85 16.0 9.35 16.7 8.3 17.05 7.9 16.2 7.6 15.35 8.6 14.85 L11.2 13.1 Q9.45 10.85 9.1 8.15 L8.75 8.15 8.75 9.25 Q8.75 13.65 6.85 16.35 6.25 17.05 5.35 16.7 4.6 16.25 5.1 15.5 6.9 12.6 6.9 9.15 L6.9 3.8 Q6.7 1.75 8.65 1.9 L10.75 1.9 10.75 0.8 Q10.75 0.1 11.7 0.0 12.6 0.1 12.65 0.8 L12.65 1.9 15.4 1.9 Q16.9 1.85 16.7 3.8 L16.45 5.15 M13.7 8.15 L11.0 8.15 Q11.45 10.15 12.6 11.6 L13.85 8.45 13.7 8.15 M10.75 3.95 L9.1 3.95 Q8.75 4.0 8.75 4.3 L8.75 6.25 10.75 6.25 10.75 3.95 M3.85 2.6 L4.7 2.6 Q6.4 2.6 5.9 4.15 5.15 6.4 4.25 7.8 L4.45 8.05 5.1 7.25 5.35 6.9 Q5.8 6.35 6.35 6.7 6.85 7.1 6.55 7.75 L5.55 9.15 6.35 10.15 Q6.7 10.9 6.15 11.4 5.55 11.85 5.0 11.1 L4.5 10.5 4.0 9.85 4.0 16.0 Q3.95 16.75 3.1 16.8 2.2 16.75 2.2 16.0 L2.2 10.55 Q1.05 11.95 0.15 11.0 -0.35 10.35 0.7 9.3 L0.95 9.0 Q2.85 7.0 3.8 4.5 L1.2 4.5 Q0.35 4.5 0.3 3.6 0.35 2.7 1.2 2.6 L2.95 2.6 1.7 1.3 Q1.5 0.35 2.6 0.15 3.9 0.7 4.3 1.85 4.25 2.6 3.85 2.6 L3.8 2.6 3.75 2.6 3.8 2.6 3.85 2.6" fill="#ff9900" fill-rule="evenodd" stroke="none"/>
      <path d="M74.0 20.0 L-4.0 20.0 -4.0 -3.0 74.0 -3.0 74.0 20.0" fill="#ff9900" fill-rule="evenodd" stroke="none"/>
      <path d="M74.0 20.0 L-4.0 20.0 -4.0 -3.0 74.0 -3.0 74.0 20.0 Z" fill="none" stroke="#ffffff" stroke-linecap="round" stroke-linejoin="round" stroke-width="1.0"/>
    </g>
  </defs>
</svg>
